<svg width="18" height="18" viewBox="0 0 18 18" fill="none" xmlns="http://www.w3.org/2000/svg">
        <path fill-rule="evenodd" clip-rule="evenodd" d="M9.00006 2.77461C8.54257 2.77461 8.10381 2.95635 7.7803 3.27985C7.45681 3.60335 7.27506 4.04211 7.27506 4.49961V5.47461H10.7251V4.49961C10.7251 4.04211 10.5433 3.60335 10.2198 3.27985C9.89632 2.95635 9.45756 2.77461 9.00006 2.77461ZM11.7751 5.47461V4.49961C11.7751 3.76363 11.4827 3.0578 10.9623 2.53739C10.4419 2.01697 9.73604 1.72461 9.00006 1.72461C8.26409 1.72461 7.55826 2.01697 7.03784 2.53739C6.51743 3.0578 6.22506 3.76363 6.22506 4.49961V5.47461H4.74838M6.22506 6.52461H4.74831C4.60774 6.52459 4.46875 6.55498 4.34102 6.61368C4.21328 6.67238 4.09975 6.758 4.0082 6.86469C3.91666 6.97138 3.84926 7.0966 3.81065 7.23177C3.77204 7.36691 3.7631 7.50881 3.78445 7.64773L4.7257 13.7617C4.78833 14.169 4.99469 14.5405 5.3074 14.8088C5.62011 15.0771 6.01853 15.2246 6.43056 15.2246H11.5696C11.9817 15.2247 12.3804 15.0773 12.6933 14.809C13.0061 14.5406 13.2125 14.1692 13.2752 13.7618L14.2164 7.64781C14.2378 7.50889 14.2288 7.36691 14.1902 7.23177C14.1516 7.0966 14.0842 6.97138 13.9927 6.86469C13.9011 6.758 13.7876 6.67238 13.6599 6.61368C13.5321 6.55498 13.3932 6.52459 13.2526 6.52461H11.7751V8.77461H10.7251V6.52461H7.27506V8.77461H6.22506V6.52461Z" fill="#212121"/>
        </svg>