<svg width="18" height="18" viewBox="0 0 18 18" fill="none" xmlns="http://www.w3.org/2000/svg">
        <path fill-rule="evenodd" clip-rule="evenodd" d="M6.50755 2.75706C7.16861 2.09599 8.06521 1.72461 9.0001 1.72461C9.93498 1.72461 10.8316 2.09599 11.4926 2.75706C12.1537 3.41812 12.5251 4.31472 12.5251 5.24961C12.5251 6.1845 12.1537 7.0811 11.4926 7.74216C10.8316 8.40323 9.93498 8.77461 9.0001 8.77461C8.06521 8.77461 7.16861 8.40323 6.50755 7.74216C5.84648 7.0811 5.4751 6.1845 5.4751 5.24961C5.4751 4.31472 5.84648 3.41812 6.50755 2.75706ZM9.0001 2.77461C8.34369 2.77461 7.71416 3.03537 7.25001 3.49952C6.78586 3.96367 6.5251 4.5932 6.5251 5.24961C6.5251 5.90602 6.78586 6.53555 7.25001 6.9997C7.71416 7.46385 8.34369 7.72461 9.0001 7.72461C9.65651 7.72461 10.286 7.46385 10.7502 6.9997C11.2143 6.53555 11.4751 5.90602 11.4751 5.24961C11.4751 4.5932 11.2143 3.96367 10.7502 3.49952C10.286 3.03537 9.65651 2.77461 9.0001 2.77461ZM7.5001 11.7746C6.84369 11.7746 6.21416 12.0354 5.75001 12.4995C5.28586 12.9637 5.0251 13.5932 5.0251 14.2496V16.2746H3.9751V14.2496C3.9751 13.3147 4.34648 12.4181 5.00755 11.7571C5.66861 11.096 6.56521 10.7246 7.5001 10.7246H10.5001C11.435 10.7246 12.3316 11.096 12.9926 11.7571C13.6537 12.4181 14.0251 13.3147 14.0251 14.2496V16.2746H12.9751V14.2496C12.9751 13.5932 12.7143 12.9637 12.2502 12.4995C11.786 12.0354 11.1565 11.7746 10.5001 11.7746H7.5001Z" fill="#212121"/>
        </svg>