<svg width="16" height="19" viewBox="0 0 16 19" fill="currentColor">
            <path
              d="M13.435 9.098c.026 2.38 2.059 3.174 2.083 3.186-.018.06-3.243.102-1.12 3.655-1.12 1.623-2.28 3.242-4.08 3.275-1.768.03-2.246-1.043-4.265-1.043-2.019 0-2.559 1.012-4.234 1.077-1.739.064-3.056-1.748-4.204-3.39C.275 14.004-1.503 9.4-1.503 6.643c0-4.375 2.825-6.685 5.567-6.685 1.442 0 2.8.995 3.682.995s2.4-.995 4.103-.995c.71 0 2.7.257 4.09 2.296-.11.068-2.454 1.428-2.504 4.344zm-2.585-6.64c.767-.93 1.285-2.22 1.144-3.513-1.111.045-2.454.743-3.252 1.674-.716.824-1.342 2.144-1.176 3.408 1.238.096 2.517-.639 3.284-1.569z" />
          </svg>