<svg class="w-9 h-9 md:w-12 md:h-12" viewBox="917 79 44 42" fill="none" xmlns="http://www.w3.org/2000/svg">
        <path d="M923.333 81.25H956.667C957.772 81.25 958.832 81.689 959.613 82.4704C960.394 83.2518 960.833 84.3116 960.833 85.4167V97.9167C960.833 103.442 958.638 108.741 954.731 112.648C950.824 116.555 945.525 118.75 940 118.75C937.264 118.75 934.555 118.211 932.028 117.164C929.5 116.117 927.203 114.583 925.269 112.648C921.362 108.741 919.167 103.442 919.167 97.9167V85.4167C919.167 84.3116 919.606 83.2518 920.387 82.4704C921.169 81.689 922.228 81.25 923.333 81.25V81.25Z" stroke="white" stroke-width="2" stroke-linecap="round" stroke-linejoin="round"/>
        <path d="M931.667 95.833L940 104.166L948.333 95.833" stroke="white" stroke-width="2" stroke-linecap="round" stroke-linejoin="round"/>
      </svg>